HIERARCHY
ROOT Hips
{
	OFFSET -3.958830 18.904000 13.208200
	CHANNELS 6 Xposition Yposition Zposition Zrotation Yrotation Xrotation 
	JOINT LHipJoint
	{
		OFFSET 0.000000 0.000000 0.000000
		CHANNELS 3 Zrotation Yrotation Xrotation
		JOINT LeftUpLeg
		{
			OFFSET 1.800000 -1.400000 0.085000
			CHANNELS 3 Zrotation Yrotation Xrotation
			JOINT LeftLeg
			{
				OFFSET 2.215000 -6.000000 0.000000
				CHANNELS 3 Zrotation Yrotation Xrotation
				JOINT LeftFoot
				{
					OFFSET 2.500000 -6.900000 0.000000
					CHANNELS 3 Zrotation Yrotation Xrotation
					JOINT LeftToeBase
					{
						OFFSET 0.200000 -0.500000 1.950000
						CHANNELS 3 Zrotation Yrotation Xrotation
						End Site
						{
							OFFSET 0.000000 0.000000 0.000000
						}
					}
				}
			}
		}
	}
	JOINT RHipJoint
	{
		OFFSET 0.000000 0.000000 0.000000
		CHANNELS 3 Zrotation Yrotation Xrotation
		JOINT RightUpLeg
		{
			OFFSET -1.800000 -1.400000 0.085000
			CHANNELS 3 Zrotation Yrotation Xrotation
			JOINT RightLeg
			{
				OFFSET -2.215000 -6.000000 0.000000
				CHANNELS 3 Zrotation Yrotation Xrotation
				JOINT RightFoot
				{
					OFFSET -2.500000 -6.900000 0.000000
					CHANNELS 3 Zrotation Yrotation Xrotation
					JOINT RightToeBase
					{
						OFFSET -0.200000 -0.500000 1.950000
						CHANNELS 3 Zrotation Yrotation Xrotation
						End Site
						{
							OFFSET 0.000000 0.000000 0.000000
						}
					}
				}
			}
		}
	}
	JOINT LowerBack
	{
		OFFSET 0.000000 0.000000 0.000000
		CHANNELS 3 Zrotation Yrotation Xrotation
		JOINT Spine
		{
			OFFSET -0.087000 1.940000 -0.288900
			CHANNELS 3 Zrotation Yrotation Xrotation
			JOINT Spine1
			{
				OFFSET 0.000000 1.950000 0.060000
				CHANNELS 3 Zrotation Yrotation Xrotation
				JOINT Neck
				{
					OFFSET 0.000000 0.000000 0.000000
					CHANNELS 3 Zrotation Yrotation Xrotation
					JOINT Neck1
					{
						OFFSET 0.000000 1.600000 0.340000
						CHANNELS 3 Zrotation Yrotation Xrotation
						JOINT Head
						{
							OFFSET 0.000000 1.667000 -0.240000
							CHANNELS 3 Zrotation Yrotation Xrotation
							End Site
							{
								OFFSET 0.000000 0.000000 0.000000
							}
						}
					}
				}
				JOINT LeftShoulder
				{
					OFFSET 0.000000 0.000000 0.000000
					CHANNELS 3 Zrotation Yrotation Xrotation
					JOINT LeftArm
					{
						OFFSET 2.700000 1.550000 -0.730000
						CHANNELS 3 Zrotation Yrotation Xrotation
						JOINT LeftForeArm
						{
							OFFSET 5.450000 0.000000 0.000000
							CHANNELS 3 Zrotation Yrotation Xrotation
							JOINT LeftHand
							{
								OFFSET 3.450000 0.000000 0.000000
								CHANNELS 3 Zrotation Yrotation Xrotation
								JOINT LeftHandIndex1
								{
									OFFSET 0.750000 0.000000 0.000000
									CHANNELS 3 Zrotation Yrotation Xrotation
									End Site
									{
										OFFSET 0.000000 0.000000 0.000000
									}
								}
							}
						}
					}
				}
				JOINT RightShoulder
				{
					OFFSET 0.000000 0.000000 0.000000
					CHANNELS 3 Zrotation Yrotation Xrotation
					JOINT RightArm
					{
						OFFSET -2.700000 1.550000 -0.730000
						CHANNELS 3 Zrotation Yrotation Xrotation
						JOINT RightForeArm
						{
							OFFSET -5.450000 0.000000 0.000000
							CHANNELS 3 Zrotation Yrotation Xrotation
							JOINT RightHand
							{
								OFFSET -3.450000 0.000000 0.000000
								CHANNELS 3 Zrotation Yrotation Xrotation
								JOINT RightHandIndex1
								{
									OFFSET -0.750000 0.000000 0.000000
									CHANNELS 3 Zrotation Yrotation Xrotation
									End Site
									{
										OFFSET 0.000000 0.000000 0.000000
									}
								}
							}
						}
					}
				}
			}
		}
	}
}
MOTION
Frames: 12
Frame Time: 0.016667
-0.049010 16.716040 -2.135670 -22.013220 -21.592819 3.931677 -15.304739 11.102013 2.803269 14.417748 -3.476562 -29.620857 -12.199710 10.669042 27.776801 -0.165902 6.116746 2.159323 0.560120 0.576470 0.396940 18.696773 -6.986743 6.567021 -12.136504 21.104765 -63.890930 14.658430 -41.095288 97.953161 -4.233837 -19.330937 -1.123632 0.388090 -0.141970 0.047720 -4.339207 -2.665160 -9.410777 17.330847 -11.387413 51.480599 -7.905165 -4.345789 2.371606 1.864832 -9.846384 -6.997365 -19.164073 8.037571 27.206189 -4.637000 2.910150 -23.889650 -22.912169 -4.337574 0.065943 -13.203180 -2.208754 -5.783036 -73.476168 -85.271029 58.662155 -3.861445 2.690734 0.403220 -0.136860 0.238160 0.115320 18.919272 9.457580 3.957951 17.580630 1.282446 -8.495667 94.346429 81.755867 68.644471 3.799317 2.047261 -0.046120 0.281030 -0.148810 -0.139730 
-0.019230 16.693590 -2.131180 -21.909996 -22.082199 3.466055 -15.301037 11.175843 2.796307 13.764344 -3.630176 -29.695202 -11.545157 10.649967 28.838633 -0.151138 6.146689 2.141850 0.569470 0.585410 0.415280 18.678250 -7.041852 6.512815 -11.532539 21.079488 -62.597400 14.059306 -41.832763 99.579712 -4.326850 -19.600114 -1.165712 0.382460 -0.167640 0.053100 -4.320113 -2.718001 -9.387017 17.265871 -11.384633 51.995182 -8.048660 -4.326668 1.753747 1.980615 -9.952301 -6.831499 -19.814350 8.420300 28.124814 -5.397750 3.147300 -23.996230 -24.024019 -5.482180 -0.426770 -13.885923 -3.167464 -7.319858 -55.015612 -81.980404 41.281839 -3.574107 3.338862 0.411520 -0.149490 0.257890 0.110240 19.743533 10.438317 4.182215 18.381236 0.922572 -9.581562 96.836885 80.103914 69.528606 3.723541 1.819869 -0.032310 0.269730 -0.155820 -0.144190 
0.053930 16.627240 -2.095760 -21.025199 -23.571352 3.034067 -15.357838 11.235834 3.003992 12.745271 -4.303793 -31.032353 -11.651804 11.443514 32.004395 -0.053268 6.662169 1.956899 0.562000 0.566810 0.426740 18.606539 -6.990973 6.352228 -10.714751 20.824329 -59.825095 12.024506 -41.777069 102.383485 -4.382111 -19.814463 -1.205281 0.369400 -0.185160 0.054830 -4.164940 -3.082922 -9.422842 16.555680 -10.477847 51.913913 -6.957615 -3.604909 0.053752 1.832107 -10.302980 -6.595353 -21.931066 9.737840 30.259857 -6.780480 3.563450 -22.218400 -27.901377 -7.182985 -1.512442 -18.102858 -6.889445 -8.459277 -31.382457 -70.419797 18.355122 -3.441185 3.372802 0.406940 -0.147390 0.258370 0.098130 23.697426 12.193117 4.925834 19.075898 0.834157 -10.103776 96.794737 79.031383 67.835251 3.645821 1.297204 -0.027000 0.251240 -0.153170 -0.153050 
0.122760 16.583840 -2.042420 -19.418891 -24.181033 2.647096 -15.359681 11.304665 3.253259 11.126445 -5.342638 -31.850415 -12.346934 11.928524 33.925294 0.016465 6.997449 1.839730 0.526360 0.498670 0.448810 18.559232 -7.133460 6.056947 -9.632454 19.476166 -54.773187 10.650880 -40.859504 102.905956 -4.310550 -19.550433 -1.174237 0.328350 -0.219910 0.048730 -4.085937 -3.271139 -9.408537 16.340040 -10.040687 50.090649 -6.955841 -3.250413 -1.244840 1.957490 -10.237360 -7.106705 -24.062277 11.711322 33.875607 -8.867270 4.761760 -20.040220 -32.082403 -9.374722 -2.123895 -23.025040 -10.593848 -8.432313 -16.908864 -54.692156 6.837413 -3.395368 3.181755 0.433160 -0.153760 0.261890 0.059460 27.495068 13.611919 6.565208 24.214941 0.676588 -9.698371 89.967229 79.449516 59.941446 3.521598 0.410284 -0.041790 0.226150 -0.134810 -0.189110 
0.149490 16.524530 -1.986640 -17.352079 -24.776499 2.889000 -15.375833 11.304851 3.593048 9.735168 -6.490919 -33.090046 -13.922416 12.619791 35.129467 0.143608 7.347603 1.735101 0.471900 0.424930 0.422460 18.503136 -7.274776 5.724028 -8.450817 18.148282 -49.566607 10.474902 -39.801713 101.615402 -4.181692 -19.119810 -1.101028 0.277860 -0.201020 0.048450 -3.970950 -3.407541 -9.452878 14.636972 -8.821847 46.489045 -6.701405 -2.975006 -2.577732 1.908730 -9.360020 -7.782311 -23.789850 13.883038 38.067433 -8.586670 6.903840 -16.040630 -35.577865 -11.202422 -1.439464 -26.580857 -10.971305 -7.707238 -8.064736 -39.846656 1.856396 -3.412510 3.066257 0.421250 -0.128680 0.238540 0.046130 31.153702 14.830975 7.350958 29.515865 0.582021 -10.558385 69.613006 75.114288 41.491144 2.629337 -1.422850 -0.050900 0.190320 -0.118070 -0.196570 
0.164750 16.473080 -1.911400 -14.963228 -25.611445 3.121756 -15.384197 11.406193 3.806851 7.457028 -7.265958 -33.785568 -14.343483 12.793530 35.782327 0.187329 7.432639 1.721015 0.428070 0.366220 0.397800 18.455590 -7.504419 5.374926 -7.412813 17.091544 -43.956537 10.116248 -37.378570 99.282624 -3.954137 -18.356948 -0.969141 0.251290 -0.172480 0.032110 -3.866350 -3.515318 -9.388837 12.877658 -7.330459 41.691853 -5.867189 -2.779002 -3.126454 1.455837 -9.456431 -8.047701 -25.596138 16.424447 40.722431 -8.315610 8.398020 -12.956290 -36.776088 -10.536083 -0.753076 -31.038673 -9.718561 -6.612480 -5.554472 -30.213533 0.405675 -3.469627 2.981046 0.413770 -0.106720 0.203540 0.028970 33.330402 14.669128 6.389792 34.714753 2.358621 -11.663970 54.771445 65.803017 27.146370 2.339247 -1.716645 -0.075430 0.187130 -0.090820 -0.205730 
0.194210 16.403170 -1.812230 -13.075901 -25.929672 3.511501 -15.345972 11.543151 3.995962 5.334573 -7.680796 -33.840260 -14.989337 12.826796 35.458028 0.242154 7.358393 1.755114 0.377720 0.306420 0.376870 18.443129 -7.938365 4.933607 -5.591186 15.802811 -37.936227 8.521509 -32.510177 95.462341 -3.582898 -17.061305 -0.728254 0.206540 -0.161210 0.034920 -3.839984 -3.351273 -9.284704 12.485490 -6.081770 35.992832 -5.745502 -2.294111 -2.194719 1.645668 -8.526604 -8.261729 -23.553032 16.736396 44.399756 -7.889790 9.934160 -9.889210 -35.908709 -9.803213 0.102544 -35.240398 -7.434404 -6.260907 -6.742369 -26.205323 0.254738 -3.507487 2.966079 0.394800 -0.082940 0.185090 0.011020 32.097590 14.114791 5.441840 40.969775 4.662408 -11.750473 43.189968 56.357732 16.822184 2.306426 -1.644099 -0.076870 0.147070 -0.078000 -0.211430 
0.243590 16.378000 -1.757830 -10.443156 -27.148759 3.870702 -15.336351 11.718522 4.204095 2.643087 -8.000303 -34.083508 -15.702689 12.463296 33.725868 0.240304 7.017790 1.903095 0.330850 0.249260 0.315200 18.402386 -8.434427 4.437260 -4.040734 14.435834 -32.356022 6.683364 -25.647238 88.690247 -3.032412 -15.160547 -0.316338 0.176630 -0.097730 0.028650 -3.717938 -3.160961 -9.122625 10.612556 -3.852554 31.304748 -4.365116 -0.908076 -1.212563 1.130750 -8.595244 -8.395400 -23.713705 16.815836 45.316730 -6.201610 9.793700 -7.047550 -33.657525 -7.972317 0.584223 -40.331016 -5.049586 -6.837255 -9.728615 -27.119128 0.547813 -3.545303 2.967041 0.367080 -0.051550 0.137770 0.026380 30.919466 13.512393 4.784983 44.906451 6.601303 -10.762706 37.091256 48.343818 11.531024 2.321701 -1.564029 -0.093360 0.147420 -0.058410 -0.190840 
0.347680 16.356080 -1.723800 -8.309630 -25.702974 4.702661 -15.297036 11.827766 4.472715 -0.696806 -8.833878 -34.706467 -15.753017 11.495975 31.648303 0.206039 6.461878 2.133001 0.265140 0.182760 0.241590 18.387789 -9.000615 3.822001 -3.714696 11.637607 -26.894633 7.017567 -20.974126 78.078715 -2.428163 -13.164880 0.158325 0.144890 -0.022810 0.034940 -3.663540 -2.864974 -8.877803 10.180963 -2.727458 26.911476 -3.010892 -0.264011 0.653596 0.743123 -8.638911 -8.081585 -22.376445 15.468199 43.446001 -5.934470 9.618960 -4.732470 -30.668702 -5.875757 0.950743 -44.426014 -3.862343 -7.556992 -15.681021 -31.077604 1.889088 -3.617297 3.027462 0.293540 0.011800 0.068300 0.036250 28.662262 12.291048 4.115572 47.146187 8.878501 -9.030235 38.514817 47.290819 11.990656 2.355845 -1.590050 -0.101680 0.128710 -0.033880 -0.163890 
0.459050 16.324560 -1.685660 -6.054679 -24.443578 5.590705 -15.253380 11.884286 4.766509 -4.329797 -9.783178 -35.070515 -15.362790 10.584106 30.082475 0.179890 5.976133 2.347014 0.201240 0.112170 0.181850 18.381919 -9.670843 3.085858 -4.311346 8.166990 -21.209988 6.546231 -16.414883 65.842856 -1.749356 -10.877534 0.770377 0.112060 0.060190 0.055740 -3.645729 -2.360105 -8.536344 9.605941 -1.154337 22.233020 -1.906400 0.709006 3.452967 0.455796 -8.083238 -7.856918 -19.632562 13.759804 41.170947 -5.951710 9.818790 -2.726000 -25.743961 -3.408629 1.299590 -47.490345 -3.692001 -7.458732 -24.912385 -35.354283 4.798496 -3.718784 3.114710 0.218540 0.088950 0.001980 0.049900 24.276131 10.157531 3.653567 50.160088 10.415556 -7.391943 43.044596 49.828296 14.793925 2.376533 -1.666472 -0.111530 0.110390 -0.013440 -0.141050 
0.572810 16.318500 -1.682910 -4.286049 -22.893866 6.184198 -15.234342 11.909068 4.989254 -6.640828 -10.363953 -35.205409 -15.039092 10.204926 29.634639 0.176833 5.788605 2.442368 0.167570 0.087140 0.141190 18.364282 -10.278346 2.434702 -4.828378 4.881860 -16.083711 5.294651 -12.411467 53.427768 -1.111348 -8.609203 1.452301 0.115090 0.124780 0.066130 -3.579622 -1.797054 -8.181125 8.504877 0.799387 18.618600 -0.249715 2.093313 6.550547 0.161991 -6.647219 -7.506694 -15.366495 11.318424 39.497159 -5.471180 9.270660 -1.607890 -20.925561 -1.165106 1.683422 -48.482752 -3.888012 -6.585065 -37.510068 -42.381877 10.938510 -3.780033 3.275285 0.144440 0.155450 -0.056210 0.062180 20.109657 7.618673 3.160112 51.042138 11.534298 -5.386141 50.612581 55.045094 20.542817 2.380033 -1.782420 -0.120180 0.101320 -0.005710 -0.122090 
0.714740 16.379790 -1.697110 -3.367776 -22.897527 6.644756 -15.192625 11.875304 5.159131 -8.372825 -10.686013 -35.700517 -14.613021 9.219351 27.149481 0.051519 5.219443 2.659256 0.135090 0.043910 0.120400 18.370823 -10.774421 2.009062 -5.290132 1.959780 -9.847233 4.440924 -9.595297 40.850939 -0.633894 -6.677424 2.110636 0.109510 0.161930 0.066670 -3.602608 -1.233639 -7.920295 8.461713 2.702595 16.550599 0.954303 3.754661 8.918145 0.130577 -5.514171 -7.682832 -12.786227 8.937283 39.627261 -5.685300 8.040860 -0.831970 -18.379468 -0.724934 2.339586 -46.429079 -3.164042 -5.499593 -49.425151 -49.663821 19.253915 -3.797717 3.401710 0.121130 0.191970 -0.094500 0.057530 17.689253 6.967342 3.391677 48.993648 11.652508 -3.842042 59.631531 59.213359 27.349734 2.400528 -1.828253 -0.143680 0.109800 0.014540 -0.124080 
